{"title":"Notorious(1946)","uid":12543109,"size":1245369483,"categoryP":"video","categoryS":"movies","magnet":"?xt=urn:btih:26d9a108a292a608324718c5278f24d55fdcf4da&amp;dn=Notorious%281946%29&amp;tr=udp%3A%2F%2Ftracker.leechers-paradise.org%3A6969&amp;tr=udp%3A%2F%2Fzer0day.ch%3A1337&amp;tr=udp%3A%2F%2Fopen.demonii.com%3A1337&amp;tr=udp%3A%2F%2Ftracker.coppersurfer.tk%3A6969&amp;tr=udp%3A%2F%2Fexodus.desync.com%3A6969","seeders":0,"leechers":0,"uploader":"dascuba","files":1,"time":1444426287,"description":"Notorious (1946)\r\nApproved  |  101 min  |  Drama, Film-Noir, Romance  |  6 September 1946 (USA)\r\n8.1 Your rating:   -/10   Ratings: 8.1/10 from 68,127 users   \r\nReviews: 282 user | 150 critic\r\nA woman is asked to spy on a group of Nazi friends in South America. How far will she have to go to ingratiate herself with them?\r\n\r\nDirector: Alfred Hitchcock\r\nWriter: Ben Hecht\r\nStars: Cary Grant, Ingrid Bergman, Claude Rains \r\n\r\n\r\nGeneral\r\nComplete name                            : C:NotoriousNOTORIOUS_Title4.mp4\r\nFormat                                   : MPEG-4\r\nFormat profile                           : Base Media\r\nCodec ID                                 : isom\r\nFile size                                : 1.16 GiB\r\nDuration                                 : 1h 41mn\r\nOverall bit rate mode                    : Constant\r\nOverall bit rate                         : 1 634 Kbps\r\nMovie name                               : NOTORIOUS\r\nGenre                                    : Spy_Film\r\nWriting application                      : Lavf54.6.100\r\n\r\nVideo\r\nID                                       : 1\r\nFormat                                   : MPEG-4 Visual\r\nFormat settings, BVOP                    : No\r\nFormat settings, QPel                    : No\r\nFormat settings, GMC                     : No warppoints\r\nFormat settings, Matrix                  : Default (H.263)\r\nCodec ID                                 : 20\r\nDuration                                 : 1h 41mn\r\nBit rate mode                            : Constant\r\nBit rate                                 : 1 500 Kbps\r\nWidth                                    : 720 pixels\r\nHeight                                   : 540 pixels\r\nDisplay aspect ratio                     : 4:3\r\nFrame rate mode                          : Constant\r\nFrame rate                               : 29.970 fps\r\nColor space                              : YUV\r\nChroma subsampling                       : 4:2:0\r\nBit depth                                : 8 bits\r\nScan type                                : Progressive\r\nCompression mode                         : Lossy\r\nBits/(Pixel*Frame)                       : 0.129\r\nStream size                              : 1.06 GiB (92%)\r\nWriting library                          : Lavc54.23.100\r\n\r\nAudio\r\nID                                       : 2\r\nFormat                                   : MPEG Audio\r\nFormat version                           : Version 1\r\nFormat profile                           : Layer 3\r\nCodec ID                                 : 6B\r\nDuration                                 : 1h 41mn\r\nBit rate mode                            : Constant\r\nBit rate                                 : 128 Kbps\r\nChannel(s)                               : 2 channels\r\nSampling rate                            : 44.1 KHz\r\nCompression mode                         : Lossy\r\nStream size                              : 93.1 MiB (8%)\r\nWriting library                          : LAME3.99.5","torrent":{"xt":"urn:btih:26d9a108a292a608324718c5278f24d55fdcf4da","amp;dn":"Notorious%281946%29","amp;tr":["udp%3A%2F%2Ftracker.leechers-paradise.org%3A6969","udp%3A%2F%2Fzer0day.ch%3A1337","udp%3A%2F%2Fopen.demonii.com%3A1337","udp%3A%2F%2Ftracker.coppersurfer.tk%3A6969","udp%3A%2F%2Fexodus.desync.com%3A6969"],"infoHash":"26d9a108a292a608324718c5278f24d55fdcf4da","infoHashBuffer":{"type":"Buffer","data":[38,217,161,8,162,146,166,8,50,71,24,197,39,143,36,213,95,220,244,218]},"announce":[],"urlList":[]}}